<?xml version="1.0" encoding="UTF-8" standalone="no"?>
<!-- Created with Inkscape (http://www.inkscape.org/) -->

<svg
   xmlns:dc="http://purl.org/dc/elements/1.1/"
   xmlns:cc="http://creativecommons.org/ns#"
   xmlns:rdf="http://www.w3.org/1999/02/22-rdf-syntax-ns#"
   xmlns:svg="http://www.w3.org/2000/svg"
   xmlns="http://www.w3.org/2000/svg"
   xmlns:sodipodi="http://sodipodi.sourceforge.net/DTD/sodipodi-0.dtd"
   xmlns:inkscape="http://www.inkscape.org/namespaces/inkscape"
   inkscape:version="0.91 r13725"
   version="1.1"
   id="svg2"
   viewBox="0 0 744.09448819 1052.3622047"
   height="297mm"
   width="210mm"
   sodipodi:docname="reference_cube.svg">
  <sodipodi:namedview
     inkscape:window-maximized="1"
     inkscape:window-y="-8"
     inkscape:window-x="-8"
     inkscape:window-height="988"
     inkscape:window-width="1680"
     showgrid="false"
     inkscape:current-layer="svg2"
     inkscape:document-units="px"
     inkscape:cy="727.15161"
     inkscape:cx="108.20124"
     inkscape:zoom="0.7"
     inkscape:pageshadow="2"
     inkscape:pageopacity="0.0"
     borderopacity="1.0"
     bordercolor="#666666"
     pagecolor="#ffffff"
     id="base" />
  <defs
     id="defs4" />
  <metadata
     id="metadata7">
    <rdf:RDF>
      <cc:Work
         rdf:about="">
        <dc:format>image/svg+xml</dc:format>
        <dc:type
           rdf:resource="http://purl.org/dc/dcmitype/StillImage" />
        <dc:title></dc:title>
      </cc:Work>
    </rdf:RDF>
  </metadata>
  <g
     id="layer1"
     inkscape:groupmode="layer"
     inkscape:label="Taso 1" />
  <g
     id="g4055"
     inkscape:groupmode="layer"
     inkscape:label="newlayer" />
  <path
     id="path4057"
     d="m 206.53751,417.61293 40.19291,0 0,-14.17323 28.27559,0 0,14.17323 40.22835,0 0,-14.17323 28.27559,0 0,14.17323 40.19291,0"
     style="fill:none;stroke:#000000;stroke-width:0.07086614;stroke-miterlimit:4;stroke-dasharray:none"
     inkscape:label="part"
     inkscape:connector-curvature="0" />
  <path
     id="path4059"
     d="m 383.70286,417.61293 0,25.94882 -14.17322,0 0,28.41732 14.17322,0 0,40.08662 -14.17322,0 0,28.41732 14.17322,0 0,25.94882"
     style="fill:none;stroke:#000000;stroke-width:0.07086614;stroke-miterlimit:4;stroke-dasharray:none"
     inkscape:label="part"
     inkscape:connector-curvature="0" />
  <path
     id="path4061"
     d="m 383.70286,566.43183 -40.19291,0 0,14.17323 -28.27559,0 0,-14.17323 -40.22835,0 0,14.17323 -28.27559,0 0,-14.17323 -40.19291,0"
     style="fill:none;stroke:#000000;stroke-width:0.07086614;stroke-miterlimit:4;stroke-dasharray:none"
     inkscape:label="part"
     inkscape:connector-curvature="0" />
  <path
     id="path4063"
     d="m 206.53751,566.43183 0,-25.94882 14.17323,0 0,-28.41732 -14.17323,0 0,-40.08662 14.17323,0 0,-28.41732 -14.17323,0 0,-25.94882"
     style="fill:none;stroke:#000000;stroke-width:0.07086614;stroke-miterlimit:4;stroke-dasharray:none"
     inkscape:label="part"
     inkscape:connector-curvature="0" />
  <path
     id="path4065"
     d="m 25.828849,222.73104 26.019685,0 0,-14.17322 28.27559,0 0,14.17322 40.228346,0 0,-14.17322 28.27559,0 0,14.17322 26.01969,0"
     style="fill:none;stroke:#000000;stroke-width:0.07086614;stroke-miterlimit:4;stroke-dasharray:none"
     inkscape:label="part"
     inkscape:connector-curvature="0" />
  <path
     id="path4067"
     d="m 174.64775,222.73104 0,26.01969 14.17322,0 0,28.27559 -14.17322,0 0,40.22835 14.17322,0 0,28.27559 -14.17322,0 0,26.01968"
     style="fill:none;stroke:#000000;stroke-width:0.07086614;stroke-miterlimit:4;stroke-dasharray:none"
     inkscape:label="part"
     inkscape:connector-curvature="0" />
  <path
     id="path4069"
     d="m 174.64775,371.54994 -26.01969,0 0,14.17323 -28.27559,0 0,-14.17323 -40.228346,0 0,14.17323 -28.27559,0 0,-14.17323 -26.019685,0"
     style="fill:none;stroke:#000000;stroke-width:0.07086614;stroke-miterlimit:4;stroke-dasharray:none"
     inkscape:label="part"
     inkscape:connector-curvature="0" />
  <path
     id="path4071"
     d="m 25.828849,371.54994 0,-26.01968 -14.173229,0 0,-28.27559 14.173229,0 0,-40.22835 -14.173229,0 0,-28.27559 14.173229,0 0,-26.01969"
     style="fill:none;stroke:#000000;stroke-width:0.07086614;stroke-miterlimit:4;stroke-dasharray:none"
     inkscape:label="part"
     inkscape:connector-curvature="0" />
  <path
     id="path4073"
     d="m 206.53751,208.55782 40.12205,0 0,14.17322 28.41732,0 0,-14.17322 40.08661,0 0,14.17322 28.41733,0 0,-14.17322 40.12204,0"
     style="fill:none;stroke:#000000;stroke-width:0.07086614;stroke-miterlimit:4;stroke-dasharray:none"
     inkscape:label="part"
     inkscape:connector-curvature="0" />
  <path
     id="path4075"
     d="m 383.70286,208.55782 0,40.12204 -14.17322,0 0,28.41733 14.17322,0 0,40.08661 -14.17322,0 0,28.41732 14.17322,0 0,40.12205"
     style="fill:none;stroke:#000000;stroke-width:0.07086614;stroke-miterlimit:4;stroke-dasharray:none"
     inkscape:label="part"
     inkscape:connector-curvature="0" />
  <path
     id="path4077"
     d="m 383.70286,385.72317 -40.12204,0 0,-14.17323 -28.41733,0 0,14.17323 -40.08661,0 0,-14.17323 -28.41732,0 0,14.17323 -40.12205,0"
     style="fill:none;stroke:#000000;stroke-width:0.07086614;stroke-miterlimit:4;stroke-dasharray:none"
     inkscape:label="part"
     inkscape:connector-curvature="0" />
  <path
     id="path4079"
     d="m 206.53751,385.72317 0,-40.12205 14.17323,0 0,-28.41732 -14.17323,0 0,-40.08661 14.17323,0 0,-28.41733 -14.17323,0 0,-40.12204"
     style="fill:none;stroke:#000000;stroke-width:0.07086614;stroke-miterlimit:4;stroke-dasharray:none"
     inkscape:label="part"
     inkscape:connector-curvature="0" />
  <path
     id="path4081"
     d="m 25.673742,415.67018 26.01969,0 0,-14.17323 28.27559,0 0,14.17323 40.228348,0 0,-14.17323 28.27559,0 0,14.17323 26.01968,0"
     style="fill:none;stroke:#000000;stroke-width:0.07086614;stroke-miterlimit:4;stroke-dasharray:none"
     inkscape:label="part"
     inkscape:connector-curvature="0" />
  <path
     id="path4083"
     d="m 174.49264,415.67018 0,26.01968 14.17323,0 0,28.2756 -14.17323,0 0,40.22834 14.17323,0 0,28.27559 -14.17323,0 0,26.01969"
     style="fill:none;stroke:#000000;stroke-width:0.07086614;stroke-miterlimit:4;stroke-dasharray:none"
     inkscape:label="part"
     inkscape:connector-curvature="0" />
  <path
     id="path4085"
     d="m 174.49264,564.48908 -26.01968,0 0,14.17323 -28.27559,0 0,-14.17323 -40.228348,0 0,14.17323 -28.27559,0 0,-14.17323 -26.01969,0"
     style="fill:none;stroke:#000000;stroke-width:0.07086614;stroke-miterlimit:4;stroke-dasharray:none"
     inkscape:label="part"
     inkscape:connector-curvature="0" />
  <path
     id="path4087"
     d="m 25.673742,564.48908 0,-26.01969 -14.17323,0 0,-28.27559 14.17323,0 0,-40.22834 -14.17323,0 0,-28.2756 14.17323,0 0,-26.01968"
     style="fill:none;stroke:#000000;stroke-width:0.07086614;stroke-miterlimit:4;stroke-dasharray:none"
     inkscape:label="part"
     inkscape:connector-curvature="0" />
  <path
     id="path4089"
     d="m 11.422966,12.588226 40.122047,0 0,14.17322 28.417323,0 0,-14.17322 40.086614,0 0,14.17322 28.41732,0 0,-14.17322 40.12205,0"
     style="fill:none;stroke:#000000;stroke-width:0.07086614;stroke-miterlimit:4;stroke-dasharray:none"
     inkscape:label="part"
     inkscape:connector-curvature="0" />
  <path
     id="path4091"
     d="m 188.58832,12.588226 0,40.12204 -14.17323,0 0,28.41733 14.17323,0 0,40.086614 -14.17323,0 0,28.41732 14.17323,0 0,40.12205"
     style="fill:none;stroke:#000000;stroke-width:0.07086614;stroke-miterlimit:4;stroke-dasharray:none"
     inkscape:label="part"
     inkscape:connector-curvature="0" />
  <path
     id="path4093"
     d="m 188.58832,189.75358 -40.12205,0 0,-14.17323 -28.41732,0 0,14.17323 -40.086614,0 0,-14.17323 -28.417323,0 0,14.17323 -40.122047,0"
     style="fill:none;stroke:#000000;stroke-width:0.07086614;stroke-miterlimit:4;stroke-dasharray:none"
     inkscape:label="part"
     inkscape:connector-curvature="0" />
  <path
     id="path4095"
     d="m 11.422966,189.75358 0,-40.12205 14.173228,0 0,-28.41732 -14.173228,0 0,-40.086614 14.173228,0 0,-28.41733 -14.173228,0 0,-40.12204"
     style="fill:none;stroke:#000000;stroke-width:0.07086614;stroke-miterlimit:4;stroke-dasharray:none"
     inkscape:label="part"
     inkscape:connector-curvature="0" />
  <path
     id="path4097"
     d="m 206.53751,27.849154 40.19291,0 0,-14.173229 28.27559,0 0,14.173229 40.22835,0 0,-14.173229 28.27559,0 0,14.173229 40.19291,0"
     style="fill:none;stroke:#000000;stroke-width:0.07086614;stroke-miterlimit:4;stroke-dasharray:none"
     inkscape:label="part"
     inkscape:connector-curvature="0" />
  <path
     id="path4099"
     d="m 383.70286,27.849154 0,25.948818 -14.17322,0 0,28.417323 14.17322,0 0,40.086615 -14.17322,0 0,28.41732 14.17322,0 0,25.94882"
     style="fill:none;stroke:#000000;stroke-width:0.07086614;stroke-miterlimit:4;stroke-dasharray:none"
     inkscape:label="part"
     inkscape:connector-curvature="0" />
  <path
     id="path4101"
     d="m 383.70286,176.66805 -40.19291,0 0,14.17323 -28.27559,0 0,-14.17323 -40.22835,0 0,14.17323 -28.27559,0 0,-14.17323 -40.19291,0"
     style="fill:none;stroke:#000000;stroke-width:0.07086614;stroke-miterlimit:4;stroke-dasharray:none"
     inkscape:label="part"
     inkscape:connector-curvature="0" />
  <path
     id="path4103"
     d="m 206.53751,176.66805 0,-25.94882 14.17323,0 0,-28.41732 -14.17323,0 0,-40.086615 14.17323,0 0,-28.417323 -14.17323,0 0,-25.948818"
     style="fill:none;stroke:#000000;stroke-width:0.07086614;stroke-miterlimit:4;stroke-dasharray:none"
     inkscape:label="part"
     inkscape:connector-curvature="0" />
</svg>
